<?xml version="1.0" standalone="no"?><!DOCTYPE svg PUBLIC "-//W3C//DTD SVG 1.1//EN" "http://www.w3.org/Graphics/SVG/1.1/DTD/svg11.dtd"><svg t="1600864465896" class="icon" viewBox="0 0 1024 1024" version="1.1" xmlns="http://www.w3.org/2000/svg" p-id="6474" xmlns:xlink="http://www.w3.org/1999/xlink" width="200" height="200"><defs><style type="text/css"></style></defs><path d="M512.01 576.01c141.38 0 256-114.62 256-256s-114.62-256-256-256-256 114.62-256 256 114.62 256 256 256zM512 128c106.04 0 192 85.96 192 192s-85.96 192-192 192-192-85.96-192-192 85.96-192 192-192zM531.95 768.01h-40c-6.6 0-12 5.4-12 12v104c0 6.6 5.4 12 12 12h40c6.6 0 12-5.4 12-12v-104c0-6.6-5.4-12-12-12z" p-id="6475"></path><path d="M884.01 640.01H140c-6.6 0-12 5.4-12 12v296.02c0 6.6 5.4 12 12 12h40c6.42 0 11.69-5.12 11.97-11.47-0.01-0.18-0.03-0.36-0.03-0.55V715.97c0-6.6 5.4-12 12-12h616c6.6 0 12 5.4 12 12v180.04h0.05v52.02c0 6.6 5.4 12 12 12h40c6.6 0 12-5.4 12-12V652.01c0.02-6.6-5.38-12-11.98-12z" p-id="6476"></path></svg>